<?xml version="1.0" standalone="no"?>
<!DOCTYPE svg PUBLIC "-//W3C//DTD SVG 20010904//EN"
 "http://www.w3.org/TR/2001/REC-SVG-20010904/DTD/svg10.dtd">
<svg version="1.0" xmlns="http://www.w3.org/2000/svg"
 width="900.000000pt" height="900.000000pt" viewBox="0 0 900.000000 900.000000"
 preserveAspectRatio="xMidYMid meet">
<metadata>
Created by potrace 1.10, written by Peter Selinger 2001-2011
</metadata>
<g transform="translate(0.000000,900.000000) scale(0.100000,-0.100000)"
fill="#000000" stroke="none">
<path d="M4399 8712 c-72 -35 -106 -61 -193 -148 -118 -118 -215 -253 -302
-424 l-49 -95 -2 -1479 c-2 -1035 -6 -1482 -14 -1486 -5 -4 -79 -10 -163 -13
-85 -4 -166 -11 -182 -17 -25 -10 -99 -21 -329 -50 -187 -24 -284 -38 -294
-45 -6 -3 -53 -10 -104 -16 -50 -5 -117 -14 -147 -20 -30 -5 -91 -17 -135 -25
-44 -9 -102 -22 -130 -29 -27 -8 -79 -21 -115 -30 -71 -18 -152 -40 -215 -60
-22 -7 -67 -21 -100 -30 -63 -18 -68 -20 -205 -83 -191 -88 -228 -105 -296
-138 -38 -19 -75 -34 -81 -34 -10 0 -124 -58 -263 -133 -28 -15 -87 -53 -131
-83 -43 -30 -81 -54 -85 -54 -9 0 -156 -114 -209 -162 -135 -123 -216 -217
-265 -308 -14 -26 -36 -67 -50 -91 -25 -43 -25 -47 -25 -274 l0 -230 31 -50
c17 -27 34 -57 38 -65 37 -78 163 -213 280 -301 112 -83 194 -139 205 -139 5
0 27 -13 49 -30 23 -16 46 -30 50 -30 11 0 143 -69 156 -81 6 -5 16 -9 23 -9
7 0 56 -20 109 -45 52 -25 103 -45 113 -45 9 0 21 -4 27 -10 5 -5 43 -21 84
-36 41 -14 79 -30 84 -35 6 -5 21 -9 35 -9 15 0 35 -7 45 -15 11 -8 29 -15 41
-15 12 0 30 -7 41 -15 10 -8 29 -15 41 -15 12 0 37 -6 55 -14 18 -8 62 -22 98
-31 36 -9 78 -23 93 -31 16 -8 41 -14 55 -14 15 -1 38 -7 52 -15 14 -8 38 -14
53 -15 16 0 38 -5 50 -12 12 -6 47 -18 77 -26 30 -7 71 -18 90 -22 19 -5 64
-15 100 -23 36 -7 75 -19 87 -25 12 -7 37 -12 55 -12 18 0 53 -6 78 -14 55
-18 140 -36 200 -43 25 -3 50 -9 56 -14 7 -6 45 -13 86 -18 41 -5 84 -13 96
-20 11 -6 36 -11 55 -11 18 0 56 -7 83 -15 27 -8 65 -15 84 -15 19 -1 46 -7
60 -15 14 -8 51 -14 83 -15 32 0 74 -7 94 -15 19 -8 55 -15 79 -15 23 0 46 -4
49 -10 3 -5 34 -10 68 -10 34 0 79 -5 99 -10 33 -9 39 -16 48 -53 6 -23 15
-50 20 -59 6 -10 10 -35 10 -56 0 -21 4 -42 10 -48 5 -5 13 -57 16 -114 4 -61
13 -113 20 -125 21 -29 20 -278 -1 -295 -8 -7 -15 -17 -15 -22 0 -5 -11 -24
-24 -41 -14 -18 -35 -59 -48 -92 -20 -53 -23 -77 -23 -206 0 -121 3 -150 18
-172 9 -14 17 -35 17 -45 0 -24 75 -125 141 -189 59 -57 177 -122 248 -136 74
-15 222 -20 234 -8 6 6 24 11 41 11 58 0 170 64 249 143 78 78 115 131 144
212 25 69 25 299 1 365 -32 87 -46 115 -71 138 -49 46 -54 101 -28 302 31 236
39 278 54 308 16 29 20 31 40 20 12 -7 72 -15 134 -18 61 -4 117 -11 125 -17
7 -6 24 -13 38 -15 l25 -3 5 -250 c4 -211 8 -255 22 -281 19 -35 100 -115 126
-126 9 -4 87 -7 172 -7 116 -1 161 3 180 13 14 8 61 33 105 56 44 22 88 45 98
50 38 22 54 30 102 55 28 14 57 29 65 34 19 10 36 19 193 100 73 38 148 78
167 90 19 11 42 24 50 27 8 3 35 16 60 29 143 74 209 108 245 128 37 22 176
97 255 140 19 10 62 34 95 52 33 18 96 52 140 75 44 22 96 50 115 62 19 11 82
45 140 76 57 30 118 63 135 73 16 11 37 21 45 25 8 3 22 9 30 14 8 5 65 34
125 65 61 31 137 71 170 89 33 18 94 50 135 71 109 57 173 107 208 163 32 48
32 50 32 179 l0 129 -33 47 c-47 66 -57 73 -297 200 -41 22 -113 60 -160 85
-47 25 -121 64 -165 87 -231 121 -349 183 -430 227 -49 26 -96 50 -102 53 -7
3 -19 7 -25 10 -7 3 -53 27 -103 54 -49 27 -146 78 -215 113 -69 36 -165 86
-215 113 -49 26 -157 83 -240 125 -82 43 -179 94 -215 113 -36 19 -117 62
-180 94 -208 107 -335 175 -344 184 -6 5 -20 9 -32 9 -13 0 -26 5 -29 10 -8
13 -262 13 -270 0 -3 -6 -14 -10 -23 -10 -25 0 -119 -89 -142 -135 -19 -37
-20 -59 -20 -346 0 -233 -3 -309 -12 -317 -8 -6 -48 -7 -103 -3 l-90 6 -5
2335 c-5 2144 -6 2338 -22 2375 -53 130 -184 335 -250 395 -16 13 -28 29 -28
35 -1 15 -29 46 -85 90 -27 22 -62 51 -78 66 -32 30 -99 65 -142 73 -21 4 -47
-3 -86 -22z m-541 -3746 c2 -17 1 -48 -2 -71 -8 -53 -31 -62 -191 -81 -66 -7
-151 -18 -190 -24 -38 -6 -88 -13 -110 -15 -132 -15 -193 -24 -215 -33 -14 -5
-70 -13 -125 -17 -55 -4 -104 -11 -110 -15 -5 -4 -32 -10 -60 -13 -96 -9 -280
-36 -310 -46 -16 -5 -54 -12 -84 -16 -30 -3 -62 -10 -72 -16 -10 -5 -63 -18
-119 -29 -56 -11 -109 -24 -119 -29 -9 -5 -50 -17 -91 -26 -41 -9 -90 -23
-108 -31 -18 -8 -43 -14 -55 -14 -12 0 -31 -6 -42 -14 -11 -7 -31 -17 -45 -21
-68 -21 -503 -237 -595 -295 -16 -10 -48 -28 -70 -40 -22 -12 -44 -28 -48 -36
-4 -8 -14 -14 -22 -14 -12 0 -119 -69 -165 -107 -35 -29 -167 -148 -191 -172
-44 -45 -125 -155 -142 -193 -10 -20 -21 -39 -26 -42 -32 -20 -39 -253 -9
-311 8 -17 27 -54 42 -82 58 -113 241 -270 445 -381 36 -20 72 -42 79 -49 7
-7 19 -13 25 -13 7 0 39 -13 72 -29 117 -57 192 -91 202 -91 6 0 24 -6 40 -14
48 -23 96 -43 148 -61 28 -9 64 -23 82 -31 17 -8 40 -14 51 -14 11 0 25 -6 31
-14 6 -8 24 -16 39 -19 15 -3 50 -12 77 -21 47 -14 154 -46 220 -66 17 -5 50
-14 75 -20 25 -6 52 -15 62 -20 9 -5 39 -12 67 -16 28 -4 56 -13 62 -20 6 -8
21 -14 33 -14 23 0 150 -28 181 -41 11 -4 45 -11 75 -15 30 -3 60 -10 65 -14
6 -4 26 -11 45 -14 97 -19 187 -39 205 -46 11 -5 54 -13 95 -19 71 -9 119 -18
220 -41 25 -6 61 -13 80 -16 19 -3 44 -9 55 -14 11 -4 58 -13 105 -19 139 -19
194 -27 210 -35 8 -3 73 -10 143 -14 71 -5 132 -13 135 -19 4 -5 47 -13 97
-17 49 -3 94 -11 99 -16 6 -6 33 -10 61 -10 27 -1 61 -7 74 -14 13 -7 31 -11
40 -9 15 4 35 0 146 -29 22 -5 72 -14 110 -19 39 -5 124 -15 190 -24 162 -20
257 -33 335 -45 36 -6 92 -13 125 -16 33 -3 69 -9 80 -14 11 -5 51 -11 89 -14
42 -3 76 -12 85 -20 12 -13 14 -60 12 -300 -3 -347 -3 -346 90 -346 57 0 104
18 209 80 8 5 29 15 45 23 37 18 178 92 265 139 36 19 119 64 185 98 66 35
152 80 190 101 39 21 104 55 145 77 41 21 86 45 100 54 32 20 140 80 205 113
28 14 70 37 95 51 25 14 81 45 125 69 44 23 112 60 150 81 39 21 97 52 130 70
33 18 96 52 140 74 44 23 121 63 170 90 50 27 133 71 185 98 52 27 142 74 200
104 102 54 137 86 139 129 1 23 -36 53 -119 97 -145 75 -284 149 -310 164 -8
4 -37 20 -65 34 -27 14 -84 43 -125 65 -63 34 -123 66 -280 148 -8 4 -31 16
-50 25 -19 10 -78 41 -130 69 -52 27 -158 82 -235 122 -77 39 -156 81 -175 93
-19 11 -73 40 -120 63 -47 23 -87 45 -90 48 -3 3 -67 38 -142 76 -76 39 -138
73 -138 78 0 4 -6 7 -12 7 -15 0 -142 66 -358 183 -25 14 -103 55 -175 91
-107 55 -138 66 -177 66 -34 0 -54 -6 -68 -20 -19 -19 -20 -33 -20 -388 0
-296 -3 -372 -14 -387 -13 -18 -33 -19 -452 -16 -246 1 -465 6 -498 12 -43 8
-65 7 -81 -1 -14 -8 -94 -10 -265 -6 -283 6 -437 16 -465 32 -12 7 -105 15
-220 19 -110 4 -204 11 -210 15 -5 5 -62 11 -125 14 -266 14 -500 35 -515 46
-5 4 -48 11 -95 15 -46 4 -94 12 -105 18 -11 6 -40 14 -65 18 -102 16 -177 32
-205 44 -16 7 -51 16 -78 20 -26 4 -50 11 -53 16 -3 5 -16 9 -29 9 -13 0 -26
4 -29 9 -3 5 -21 12 -40 15 -19 4 -39 13 -45 20 -6 8 -24 16 -39 19 -15 3 -55
24 -88 46 -44 30 -69 55 -97 103 -37 63 -44 94 -28 126 5 9 19 37 31 62 26 52
88 119 145 158 22 15 42 29 45 32 3 4 23 17 45 30 22 13 42 26 45 29 19 22
152 72 235 90 55 12 114 26 130 31 17 4 53 11 80 15 28 3 64 10 80 15 35 10
165 36 245 49 30 5 84 16 120 24 36 8 96 18 135 22 38 4 80 12 95 17 14 6 70
17 125 24 55 8 125 18 155 24 30 5 84 15 120 20 36 6 90 15 120 20 194 33 193
33 208 13 8 -11 12 -40 10 -78 -3 -57 -4 -61 -38 -77 -19 -9 -55 -17 -80 -18
-25 0 -61 -4 -80 -10 -19 -5 -69 -14 -110 -19 -64 -9 -235 -38 -320 -55 -14
-2 -72 -12 -130 -21 -58 -9 -121 -21 -140 -26 -19 -6 -73 -17 -120 -25 -199
-35 -305 -56 -365 -72 -22 -5 -76 -18 -120 -27 -44 -9 -93 -20 -110 -25 -16
-5 -48 -12 -70 -16 -106 -18 -316 -176 -315 -237 0 -12 7 -30 14 -40 29 -37
234 -126 331 -143 22 -4 49 -11 60 -17 20 -10 112 -30 215 -47 30 -5 75 -13
100 -19 25 -5 62 -10 83 -11 21 0 51 -7 66 -15 19 -9 91 -18 217 -25 197 -12
332 -22 544 -40 69 -6 164 -13 211 -14 48 -2 102 -9 120 -14 63 -20 305 -38
833 -60 139 -5 182 -4 192 6 9 9 76 12 263 12 l251 0 1 313 c0 344 3 361 64
429 54 59 81 68 199 68 119 0 99 7 341 -120 77 -40 178 -93 225 -118 140 -73
319 -166 425 -222 55 -29 156 -82 225 -118 313 -162 409 -213 470 -245 36 -20
115 -60 175 -91 61 -31 153 -79 205 -107 52 -28 140 -75 195 -104 55 -29 138
-72 185 -97 47 -25 135 -71 195 -103 168 -87 215 -143 215 -253 0 -96 -48
-181 -130 -229 -35 -20 -141 -77 -300 -161 -211 -110 -320 -168 -380 -200 -36
-19 -92 -50 -125 -67 -106 -57 -242 -130 -356 -193 -30 -17 -89 -48 -130 -70
-41 -22 -105 -57 -144 -78 -76 -41 -163 -87 -295 -156 -47 -25 -128 -67 -180
-95 -102 -54 -233 -122 -418 -219 -64 -33 -148 -77 -186 -97 -68 -37 -70 -37
-188 -37 -129 0 -154 8 -203 69 -39 49 -43 78 -44 331 -1 135 -5 250 -9 256
-8 14 -31 18 -290 53 -40 5 -80 12 -90 15 -9 3 -69 8 -132 10 -63 3 -140 13
-170 21 -30 9 -84 20 -120 25 -36 5 -117 18 -180 30 -63 12 -144 26 -180 30
-134 15 -236 33 -273 46 -20 8 -65 14 -100 14 -34 0 -89 5 -122 11 -33 6 -87
15 -120 20 -189 28 -232 36 -255 46 -14 6 -54 14 -90 18 -36 4 -69 11 -75 15
-5 4 -30 10 -55 13 -82 11 -206 33 -217 40 -6 4 -44 14 -85 23 -40 8 -91 19
-113 24 -22 5 -67 14 -100 20 -33 7 -73 18 -90 25 -16 7 -54 16 -82 20 -29 4
-55 11 -59 16 -3 5 -17 9 -32 9 -14 0 -44 6 -67 14 -22 7 -66 21 -98 30 -108
30 -162 46 -210 61 -26 8 -52 15 -58 15 -6 0 -25 6 -42 14 -18 7 -81 30 -142
49 -60 20 -135 45 -165 57 -30 12 -64 24 -75 27 -21 6 -98 38 -127 54 -10 5
-22 9 -27 9 -15 0 -306 137 -361 170 -203 122 -225 136 -341 228 -37 28 -79
69 -94 89 -16 21 -40 52 -55 68 -15 17 -47 66 -71 110 l-44 80 -3 174 c-4 199
-1 212 79 346 46 77 65 100 149 190 73 78 284 255 304 255 3 0 33 19 68 43 88
58 100 66 123 77 11 6 34 19 50 30 17 10 66 38 110 61 44 22 91 47 105 55 14
7 54 27 90 44 36 17 72 35 80 40 27 15 145 70 152 70 4 0 35 13 70 29 66 31
91 39 278 91 107 30 134 38 230 68 41 13 161 39 240 52 30 5 73 14 95 19 22 6
68 11 102 11 34 0 74 5 90 11 29 11 133 26 478 69 50 6 119 17 155 25 36 8
100 17 142 20 43 4 90 11 105 15 16 5 62 8 103 7 l75 -2 3 -29z m-13 -796 c4
-6 6 -176 6 -377 0 -287 -3 -368 -13 -375 -24 -14 -187 -9 -219 7 -20 11 -55
16 -107 15 -205 -3 -284 1 -319 15 -24 10 -72 15 -152 16 -147 0 -335 23 -394
47 -16 7 -51 12 -78 12 -27 0 -66 7 -86 15 -19 8 -47 15 -60 15 -30 0 -151 29
-176 42 -10 5 -37 13 -60 17 -80 17 -216 76 -224 98 -7 19 10 37 89 89 62 40
130 67 208 81 14 2 52 10 85 18 73 16 182 40 273 60 37 7 99 21 138 30 40 8
86 15 104 15 17 0 39 4 48 9 17 9 152 36 252 51 94 14 192 30 265 45 82 17
194 35 283 45 35 4 66 10 69 14 10 10 61 7 68 -4z"/>
</g>
</svg>
